<?xml version="1.0" standalone="no"?>
<!DOCTYPE svg PUBLIC "-//W3C//DTD SVG 20010904//EN"
 "http://www.w3.org/TR/2001/REC-SVG-20010904/DTD/svg10.dtd">
<svg version="1.0" xmlns="http://www.w3.org/2000/svg"
 width="881.000000pt" height="881.000000pt" viewBox="0 0 881.000000 881.000000"
 preserveAspectRatio="xMidYMid meet">
<metadata>
Created by potrace 1.14, written by Peter Selinger 2001-2017
</metadata>
<g transform="translate(0.000000,881.000000) scale(0.100000,-0.100000)"
fill="#000000" stroke="none">
<path d="M4210 8714 c-25 -2 -106 -8 -180 -15 -398 -32 -839 -138 -1220 -291
-1092 -440 -1961 -1314 -2393 -2408 -138 -349 -224 -692 -273 -1080 -21 -173
-30 -638 -15 -826 95 -1202 668 -2280 1616 -3039 650 -521 1442 -835 2305
-915 169 -16 588 -13 770 5 1039 102 1959 546 2687 1298 902 933 1333 2233
1168 3527 -99 773 -421 1530 -910 2137 -726 902 -1758 1465 -2910 1588 -135
15 -553 27 -645 19z"/>
</g>
</svg>
