<?xml version="1.0" standalone="no"?>
<!DOCTYPE svg PUBLIC "-//W3C//DTD SVG 20010904//EN"
 "http://www.w3.org/TR/2001/REC-SVG-20010904/DTD/svg10.dtd">
<svg version="1.0" xmlns="http://www.w3.org/2000/svg"
 width="820.000000pt" height="820.000000pt" viewBox="0 0 820.000000 820.000000"
 preserveAspectRatio="xMidYMid meet">
<metadata>
Created by potrace 1.14, written by Peter Selinger 2001-2017
</metadata>
<g transform="translate(0.000000,820.000000) scale(0.100000,-0.100000)"
fill="#000000" stroke="none">
<path d="M3794 7940 c-1150 -68 -2215 -655 -2885 -1592 -569 -795 -814 -1787
-679 -2749 170 -1209 891 -2251 1965 -2837 417 -228 890 -378 1385 -439 206
-25 679 -25 875 1 351 45 617 110 915 223 750 285 1383 790 1824 1453 202 304
339 582 451 916 245 730 258 1564 34 2304 -185 613 -497 1136 -949 1591 -313
314 -620 538 -998 728 -596 299 -1277 440 -1938 401z"/>
</g>
</svg>
